<?xml version="1.0" encoding="utf-8"?>
<svg id="master-artboard" viewBox="0 0 1400 980" xmlns="http://www.w3.org/2000/svg" width="1400px" height="980px" version="1.1" style="shape-rendering:geometricPrecision; text-rendering:geometricPrecision; image-rendering:optimizeQuality; fill-rule:evenodd; clip-rule:evenodd"><g transform="matrix(1.7120895267748608, 0, 0, 1.7120895267748608, 308.1882316436104, -773.864450843448)"><g transform="matrix(1, 0, 0, 1, 0, 0)"><g transform="matrix(1, 0, 0, 1, 0, 0)">
	<path d="M 308.8999938964844 626.4000244140625 L 148.6999969482422 626.4000244140625 L 153.10000610351562 608.9000244140625 L 304.6000061035156 608.9000244140625 Z" class="st6" style="fill: rgb(86, 87, 89);"/>
	<path d="M 133.100006 626.400024 H 324.600006 V 646.800024 H 133.100006 V 626.400024 Z" class="st7" style="fill: rgb(64, 64, 65);"/>
	<path d="M 299.20001220703125 881.2999877929688 L 158.5 881.2999877929688 L 143.3000030517578 646.7999877929688 L 314.29998779296875 646.7999877929688 Z" class="st5" style="fill: rgb(255, 255, 255);"/>
	<path d="M 168.600006 595.099976 H 289.100006 V 608.899976 H 168.600006 V 595.099976 Z" class="st12" style="fill: rgb(109, 110, 112);"/>
	<path class="st7" d="M308.7,733.7h-26.6c-8.3-21.3-29-36.4-53.3-36.4c-24.2,0-45,15.1-53.3,36.4h-26.6l3.1,48.6h26.8&#10;&#9;&#9;c9.8,17.5,28.5,29.4,50,29.4c21.5,0,40.2-11.9,50-29.4h26.8L308.7,733.7z" style="fill: rgb(64, 64, 65);"/>
	<path d="M 228.800003 595.099976 H 289.100002 V 608.899976 H 228.800003 V 595.099976 Z" class="st6" style="fill: rgb(86, 87, 89);"/>
	<path d="M 228.8000030517578 626.4000244140625 L 308.8999938964844 626.4000244140625 L 304.6000061035156 608.9000244140625 L 228.8000030517578 608.9000244140625 Z" class="st7" style="fill: rgb(64, 64, 65);"/>
	<path d="M 228.800003 626.400024 H 324.600006 V 646.800024 H 228.800003 V 626.400024 Z" class="st13" style="fill: rgb(41, 40, 42);"/>
	<path d="M 228.8000030517578 881.2999877929688 L 299.20001220703125 881.2999877929688 L 314.29998779296875 646.7999877929688 L 228.8000030517578 646.7999877929688 Z" class="st0" style="fill: rgb(219, 219, 219);"/>
	<path class="st13" d="M278.8,782.2h26.8l3.1-48.6h-26.6c-8.3-21.3-29-36.4-53.3-36.4v114.3C250.3,811.6,269,799.7,278.8,782.2z" style="fill: rgb(41, 40, 42);"/>
</g></g></g></svg>